# MagicaVoxel @ Ephtracy

# group
o 

# material
mtllib Building_002.mtl
usemtl palette

# normals
vn -1 0 0
vn 1 0 0
vn 0 0 1
vn 0 0 -1
vn 0 -1 0
vn 0 1 0

# texcoords
vt 0.876953 0.5
vt 0.986328 0.5
vt 0.990234 0.5

# verts
v -0.2 0 0.2
v -0.2 0 -0.3
v -0.2 0.1 0.2
v -0.2 0.1 -0.3
v -0.2 0.8 0.2
v -0.2 0.8 -0.3
v -0.2 0.9 0.2
v -0.2 0.9 -0.3
v -0.2 1 0.1
v -0.2 1 -0.2
v -0.2 1.1 0.1
v -0.2 1.1 -0.2
v -0.2 1.4 0.2
v -0.2 1.4 -0.3
v -0.2 1.5 0.2
v -0.2 1.5 -0.3
v -0.2 3.2 0.1
v -0.2 3.2 -0.2
v -0.2 3.4 0.1
v -0.2 3.4 -0.2
v -0.2 3.5 0.2
v -0.2 3.5 -0.3
v -0.2 3.6 0.2
v -0.2 3.6 0.1
v -0.2 3.6 -0.2
v -0.2 3.6 -0.3
v -0.2 3.7 0.2
v -0.2 3.7 0.1
v -0.2 3.7 -0.2
v -0.2 3.7 -0.3
v -0.2 3.8 0.3
v -0.2 3.8 0.2
v -0.2 3.8 -0.3
v -0.2 3.8 -0.4
v -0.2 4 0.3
v -0.2 4 -0.4
v -0.1 0.1 0.1
v -0.1 0.1 -0.2
v -0.1 0.8 0.1
v -0.1 0.8 -0.2
v -0.1 0.9 0.1
v -0.1 0.9 -0.2
v -0.1 1 0.2
v -0.1 1 0.1
v -0.1 1 -0.2
v -0.1 1 -0.3
v -0.1 1.1 0.2
v -0.1 1.1 0.1
v -0.1 1.1 -0.2
v -0.1 1.1 -0.3
v -0.1 1.4 0.1
v -0.1 1.4 -0.2
v -0.1 1.5 0.1
v -0.1 1.5 -0.2
v -0.1 3.2 0.2
v -0.1 3.2 0.1
v -0.1 3.2 -0.2
v -0.1 3.2 -0.3
v -0.1 3.4 0.2
v -0.1 3.4 0.1
v -0.1 3.4 -0.2
v -0.1 3.4 -0.3
v -0.1 3.5 0.1
v -0.1 3.5 -0.2
v -0.1 3.6 0.2
v -0.1 3.6 0.1
v -0.1 3.6 -0.2
v -0.1 3.6 -0.3
v -0.1 3.7 0.2
v -0.1 3.7 0.1
v -0.1 3.7 -0.2
v -0.1 3.7 -0.3
v 0.2 0.1 0.1
v 0.2 0.1 -0.2
v 0.2 0.8 0.1
v 0.2 0.8 -0.2
v 0.2 0.9 0.1
v 0.2 0.9 -0.2
v 0.2 1 0.2
v 0.2 1 0.1
v 0.2 1 -0.2
v 0.2 1 -0.3
v 0.2 1.1 0.2
v 0.2 1.1 0.1
v 0.2 1.1 -0.2
v 0.2 1.1 -0.3
v 0.2 1.4 0.1
v 0.2 1.4 -0.2
v 0.2 1.5 0.1
v 0.2 1.5 -0.2
v 0.2 3.2 0.2
v 0.2 3.2 0.1
v 0.2 3.2 -0.2
v 0.2 3.2 -0.3
v 0.2 3.4 0.2
v 0.2 3.4 0.1
v 0.2 3.4 -0.2
v 0.2 3.4 -0.3
v 0.2 3.5 0.1
v 0.2 3.5 -0.2
v 0.2 3.6 0.2
v 0.2 3.6 0.1
v 0.2 3.6 -0.2
v 0.2 3.6 -0.3
v 0.2 3.7 0.2
v 0.2 3.7 0.1
v 0.2 3.7 -0.2
v 0.2 3.7 -0.3
v 0.3 0 0.2
v 0.3 0 -0.3
v 0.3 0.1 0.2
v 0.3 0.1 -0.3
v 0.3 0.8 0.2
v 0.3 0.8 -0.3
v 0.3 0.9 0.2
v 0.3 0.9 -0.3
v 0.3 1 0.1
v 0.3 1 -0.2
v 0.3 1.1 0.1
v 0.3 1.1 -0.2
v 0.3 1.4 0.2
v 0.3 1.4 -0.3
v 0.3 1.5 0.2
v 0.3 1.5 -0.3
v 0.3 3.2 0.1
v 0.3 3.2 -0.2
v 0.3 3.4 0.1
v 0.3 3.4 -0.2
v 0.3 3.5 0.2
v 0.3 3.5 -0.3
v 0.3 3.6 0.2
v 0.3 3.6 0.1
v 0.3 3.6 -0.2
v 0.3 3.6 -0.3
v 0.3 3.7 0.2
v 0.3 3.7 0.1
v 0.3 3.7 -0.2
v 0.3 3.7 -0.3
v 0.3 3.8 0.3
v 0.3 3.8 0.2
v 0.3 3.8 -0.3
v 0.3 3.8 -0.4
v 0.3 4 0.3
v 0.3 4 -0.4
v -0.2 3.8 0.3
v -0.2 4 0.3
v 0.3 3.8 0.3
v 0.3 4 0.3
v -0.2 0 0.2
v -0.2 0.1 0.2
v -0.2 0.8 0.2
v -0.2 0.9 0.2
v -0.2 1.4 0.2
v -0.2 1.5 0.2
v -0.2 3.5 0.2
v -0.2 3.6 0.2
v -0.2 3.7 0.2
v -0.2 3.8 0.2
v -0.1 1 0.2
v -0.1 1.1 0.2
v -0.1 3.2 0.2
v -0.1 3.4 0.2
v -0.1 3.6 0.2
v -0.1 3.7 0.2
v 0.2 1 0.2
v 0.2 1.1 0.2
v 0.2 3.2 0.2
v 0.2 3.4 0.2
v 0.2 3.6 0.2
v 0.2 3.7 0.2
v 0.3 0 0.2
v 0.3 0.1 0.2
v 0.3 0.8 0.2
v 0.3 0.9 0.2
v 0.3 1.4 0.2
v 0.3 1.5 0.2
v 0.3 3.5 0.2
v 0.3 3.6 0.2
v 0.3 3.7 0.2
v 0.3 3.8 0.2
v -0.2 1 0.1
v -0.2 1.1 0.1
v -0.2 3.2 0.1
v -0.2 3.4 0.1
v -0.2 3.6 0.1
v -0.2 3.7 0.1
v -0.1 0.1 0.1
v -0.1 0.8 0.1
v -0.1 0.9 0.1
v -0.1 1 0.1
v -0.1 1.1 0.1
v -0.1 1.4 0.1
v -0.1 1.5 0.1
v -0.1 3.2 0.1
v -0.1 3.4 0.1
v -0.1 3.5 0.1
v -0.1 3.6 0.1
v -0.1 3.7 0.1
v 0.2 0.1 0.1
v 0.2 0.8 0.1
v 0.2 0.9 0.1
v 0.2 1 0.1
v 0.2 1.1 0.1
v 0.2 1.4 0.1
v 0.2 1.5 0.1
v 0.2 3.2 0.1
v 0.2 3.4 0.1
v 0.2 3.5 0.1
v 0.2 3.6 0.1
v 0.2 3.7 0.1
v 0.3 1 0.1
v 0.3 1.1 0.1
v 0.3 3.2 0.1
v 0.3 3.4 0.1
v 0.3 3.6 0.1
v 0.3 3.7 0.1
v -0.2 1 -0.2
v -0.2 1.1 -0.2
v -0.2 3.2 -0.2
v -0.2 3.4 -0.2
v -0.2 3.6 -0.2
v -0.2 3.7 -0.2
v -0.1 0.1 -0.2
v -0.1 0.8 -0.2
v -0.1 0.9 -0.2
v -0.1 1 -0.2
v -0.1 1.1 -0.2
v -0.1 1.4 -0.2
v -0.1 1.5 -0.2
v -0.1 3.2 -0.2
v -0.1 3.4 -0.2
v -0.1 3.5 -0.2
v -0.1 3.6 -0.2
v -0.1 3.7 -0.2
v 0.2 0.1 -0.2
v 0.2 0.8 -0.2
v 0.2 0.9 -0.2
v 0.2 1 -0.2
v 0.2 1.1 -0.2
v 0.2 1.4 -0.2
v 0.2 1.5 -0.2
v 0.2 3.2 -0.2
v 0.2 3.4 -0.2
v 0.2 3.5 -0.2
v 0.2 3.6 -0.2
v 0.2 3.7 -0.2
v 0.3 1 -0.2
v 0.3 1.1 -0.2
v 0.3 3.2 -0.2
v 0.3 3.4 -0.2
v 0.3 3.6 -0.2
v 0.3 3.7 -0.2
v -0.2 0 -0.3
v -0.2 0.1 -0.3
v -0.2 0.8 -0.3
v -0.2 0.9 -0.3
v -0.2 1.4 -0.3
v -0.2 1.5 -0.3
v -0.2 3.5 -0.3
v -0.2 3.6 -0.3
v -0.2 3.7 -0.3
v -0.2 3.8 -0.3
v -0.1 1 -0.3
v -0.1 1.1 -0.3
v -0.1 3.2 -0.3
v -0.1 3.4 -0.3
v -0.1 3.6 -0.3
v -0.1 3.7 -0.3
v 0.2 1 -0.3
v 0.2 1.1 -0.3
v 0.2 3.2 -0.3
v 0.2 3.4 -0.3
v 0.2 3.6 -0.3
v 0.2 3.7 -0.3
v 0.3 0 -0.3
v 0.3 0.1 -0.3
v 0.3 0.8 -0.3
v 0.3 0.9 -0.3
v 0.3 1.4 -0.3
v 0.3 1.5 -0.3
v 0.3 3.5 -0.3
v 0.3 3.6 -0.3
v 0.3 3.7 -0.3
v 0.3 3.8 -0.3
v -0.2 3.8 -0.4
v -0.2 4 -0.4
v 0.3 3.8 -0.4
v 0.3 4 -0.4
v -0.2 0 0.2
v 0.3 0 0.2
v -0.2 0 -0.3
v 0.3 0 -0.3
v -0.2 0.8 0.2
v 0.3 0.8 0.2
v -0.1 0.8 0.1
v 0.2 0.8 0.1
v -0.1 0.8 -0.2
v 0.2 0.8 -0.2
v -0.2 0.8 -0.3
v 0.3 0.8 -0.3
v -0.1 1 0.2
v 0.2 1 0.2
v -0.2 1 0.1
v -0.1 1 0.1
v 0.2 1 0.1
v 0.3 1 0.1
v -0.2 1 -0.2
v -0.1 1 -0.2
v 0.2 1 -0.2
v 0.3 1 -0.2
v -0.1 1 -0.3
v 0.2 1 -0.3
v -0.2 1.4 0.2
v 0.3 1.4 0.2
v -0.1 1.4 0.1
v 0.2 1.4 0.1
v -0.1 1.4 -0.2
v 0.2 1.4 -0.2
v -0.2 1.4 -0.3
v 0.3 1.4 -0.3
v -0.1 3.2 0.2
v 0.2 3.2 0.2
v -0.2 3.2 0.1
v -0.1 3.2 0.1
v 0.2 3.2 0.1
v 0.3 3.2 0.1
v -0.2 3.2 -0.2
v -0.1 3.2 -0.2
v 0.2 3.2 -0.2
v 0.3 3.2 -0.2
v -0.1 3.2 -0.3
v 0.2 3.2 -0.3
v -0.2 3.5 0.2
v 0.3 3.5 0.2
v -0.1 3.5 0.1
v 0.2 3.5 0.1
v -0.1 3.5 -0.2
v 0.2 3.5 -0.2
v -0.2 3.5 -0.3
v 0.3 3.5 -0.3
v -0.2 3.7 0.2
v -0.1 3.7 0.2
v 0.2 3.7 0.2
v 0.3 3.7 0.2
v -0.2 3.7 0.1
v -0.1 3.7 0.1
v 0.2 3.7 0.1
v 0.3 3.7 0.1
v -0.2 3.7 -0.2
v -0.1 3.7 -0.2
v 0.2 3.7 -0.2
v 0.3 3.7 -0.2
v -0.2 3.7 -0.3
v -0.1 3.7 -0.3
v 0.2 3.7 -0.3
v 0.3 3.7 -0.3
v -0.2 3.8 0.3
v 0.3 3.8 0.3
v -0.2 3.8 0.2
v 0.3 3.8 0.2
v -0.2 3.8 -0.3
v 0.3 3.8 -0.3
v -0.2 3.8 -0.4
v 0.3 3.8 -0.4
v -0.2 0.1 0.2
v 0.3 0.1 0.2
v -0.1 0.1 0.1
v 0.2 0.1 0.1
v -0.1 0.1 -0.2
v 0.2 0.1 -0.2
v -0.2 0.1 -0.3
v 0.3 0.1 -0.3
v -0.2 0.9 0.2
v 0.3 0.9 0.2
v -0.1 0.9 0.1
v 0.2 0.9 0.1
v -0.1 0.9 -0.2
v 0.2 0.9 -0.2
v -0.2 0.9 -0.3
v 0.3 0.9 -0.3
v -0.1 1.1 0.2
v 0.2 1.1 0.2
v -0.2 1.1 0.1
v -0.1 1.1 0.1
v 0.2 1.1 0.1
v 0.3 1.1 0.1
v -0.2 1.1 -0.2
v -0.1 1.1 -0.2
v 0.2 1.1 -0.2
v 0.3 1.1 -0.2
v -0.1 1.1 -0.3
v 0.2 1.1 -0.3
v -0.2 1.5 0.2
v 0.3 1.5 0.2
v -0.1 1.5 0.1
v 0.2 1.5 0.1
v -0.1 1.5 -0.2
v 0.2 1.5 -0.2
v -0.2 1.5 -0.3
v 0.3 1.5 -0.3
v -0.1 3.4 0.2
v 0.2 3.4 0.2
v -0.2 3.4 0.1
v -0.1 3.4 0.1
v 0.2 3.4 0.1
v 0.3 3.4 0.1
v -0.2 3.4 -0.2
v -0.1 3.4 -0.2
v 0.2 3.4 -0.2
v 0.3 3.4 -0.2
v -0.1 3.4 -0.3
v 0.2 3.4 -0.3
v -0.2 3.6 0.2
v -0.1 3.6 0.2
v 0.2 3.6 0.2
v 0.3 3.6 0.2
v -0.2 3.6 0.1
v -0.1 3.6 0.1
v 0.2 3.6 0.1
v 0.3 3.6 0.1
v -0.2 3.6 -0.2
v -0.1 3.6 -0.2
v 0.2 3.6 -0.2
v 0.3 3.6 -0.2
v -0.2 3.6 -0.3
v -0.1 3.6 -0.3
v 0.2 3.6 -0.3
v 0.3 3.6 -0.3
v -0.2 4 0.3
v 0.3 4 0.3
v -0.2 4 -0.4
v 0.3 4 -0.4

# faces
f 3/2/1 2/2/1 1/2/1
f 4/2/1 2/2/1 3/2/1
f 7/3/1 6/3/1 5/3/1
f 8/3/1 6/3/1 7/3/1
f 11/3/1 10/3/1 9/3/1
f 12/3/1 10/3/1 11/3/1
f 15/3/1 14/3/1 13/3/1
f 16/3/1 14/3/1 15/3/1
f 19/3/1 18/3/1 17/3/1
f 20/3/1 18/3/1 19/3/1
f 23/3/1 22/3/1 21/3/1
f 24/3/1 22/3/1 23/3/1
f 25/3/1 22/3/1 24/3/1
f 26/3/1 22/3/1 25/3/1
f 28/1/1 25/1/1 24/1/1
f 29/1/1 25/1/1 28/1/1
f 32/1/1 28/1/1 27/1/1
f 32/1/1 30/1/1 29/1/1
f 32/1/1 29/1/1 28/1/1
f 33/1/1 30/1/1 32/1/1
f 35/1/1 33/1/1 32/1/1
f 35/1/1 34/1/1 33/1/1
f 35/1/1 32/1/1 31/1/1
f 36/1/1 34/1/1 35/1/1
f 39/3/1 38/3/1 37/3/1
f 40/3/1 38/3/1 39/3/1
f 44/3/1 42/3/1 41/3/1
f 45/3/1 42/3/1 44/3/1
f 47/3/1 44/3/1 43/3/1
f 48/3/1 44/3/1 47/3/1
f 49/3/1 46/3/1 45/3/1
f 50/3/1 46/3/1 49/3/1
f 51/3/1 49/3/1 48/3/1
f 52/3/1 49/3/1 51/3/1
f 56/3/1 54/3/1 53/3/1
f 57/3/1 54/3/1 56/3/1
f 59/3/1 56/3/1 55/3/1
f 60/3/1 56/3/1 59/3/1
f 61/3/1 58/3/1 57/3/1
f 62/3/1 58/3/1 61/3/1
f 63/3/1 61/3/1 60/3/1
f 64/3/1 61/3/1 63/3/1
f 69/1/1 66/1/1 65/1/1
f 70/1/1 66/1/1 69/1/1
f 71/1/1 68/1/1 67/1/1
f 72/1/1 68/1/1 71/1/1
f 73/3/2 74/3/2 75/3/2
f 75/3/2 74/3/2 76/3/2
f 77/3/2 78/3/2 80/3/2
f 80/3/2 78/3/2 81/3/2
f 79/3/2 80/3/2 83/3/2
f 83/3/2 80/3/2 84/3/2
f 81/3/2 82/3/2 85/3/2
f 85/3/2 82/3/2 86/3/2
f 84/3/2 85/3/2 87/3/2
f 87/3/2 85/3/2 88/3/2
f 89/3/2 90/3/2 92/3/2
f 92/3/2 90/3/2 93/3/2
f 91/3/2 92/3/2 95/3/2
f 95/3/2 92/3/2 96/3/2
f 93/3/2 94/3/2 97/3/2
f 97/3/2 94/3/2 98/3/2
f 96/3/2 97/3/2 99/3/2
f 99/3/2 97/3/2 100/3/2
f 101/1/2 102/1/2 105/1/2
f 105/1/2 102/1/2 106/1/2
f 103/1/2 104/1/2 107/1/2
f 107/1/2 104/1/2 108/1/2
f 109/2/2 110/2/2 111/2/2
f 111/2/2 110/2/2 112/2/2
f 113/3/2 114/3/2 115/3/2
f 115/3/2 114/3/2 116/3/2
f 117/3/2 118/3/2 119/3/2
f 119/3/2 118/3/2 120/3/2
f 121/3/2 122/3/2 123/3/2
f 123/3/2 122/3/2 124/3/2
f 125/3/2 126/3/2 127/3/2
f 127/3/2 126/3/2 128/3/2
f 129/3/2 130/3/2 131/3/2
f 131/3/2 130/3/2 132/3/2
f 132/3/2 130/3/2 133/3/2
f 133/3/2 130/3/2 134/3/2
f 132/1/2 133/1/2 136/1/2
f 136/1/2 133/1/2 137/1/2
f 135/1/2 136/1/2 140/1/2
f 137/1/2 138/1/2 140/1/2
f 136/1/2 137/1/2 140/1/2
f 140/1/2 138/1/2 141/1/2
f 140/1/2 141/1/2 143/1/2
f 141/1/2 142/1/2 143/1/2
f 139/1/2 140/1/2 143/1/2
f 143/1/2 142/1/2 144/1/2
f 147/1/3 146/1/3 145/1/3
f 148/1/3 146/1/3 147/1/3
f 163/3/3 156/3/3 155/3/3
f 164/1/3 158/1/3 157/1/3
f 165/3/3 160/3/3 159/3/3
f 166/3/3 160/3/3 165/3/3
f 167/3/3 162/3/3 161/3/3
f 168/3/3 162/3/3 167/3/3
f 169/3/3 163/3/3 155/3/3
f 169/1/3 164/1/3 163/1/3
f 170/1/3 158/1/3 164/1/3
f 170/1/3 164/1/3 169/1/3
f 171/2/3 150/2/3 149/2/3
f 172/2/3 150/2/3 171/2/3
f 173/3/3 152/3/3 151/3/3
f 174/3/3 152/3/3 173/3/3
f 175/3/3 154/3/3 153/3/3
f 176/3/3 154/3/3 175/3/3
f 177/3/3 169/3/3 155/3/3
f 178/3/3 169/3/3 177/3/3
f 179/1/3 158/1/3 170/1/3
f 180/1/3 158/1/3 179/1/3
f 190/3/3 182/3/3 181/3/3
f 191/3/3 182/3/3 190/3/3
f 194/3/3 184/3/3 183/3/3
f 195/3/3 184/3/3 194/3/3
f 197/1/3 186/1/3 185/1/3
f 198/1/3 186/1/3 197/1/3
f 199/3/3 188/3/3 187/3/3
f 200/3/3 188/3/3 199/3/3
f 201/3/3 190/3/3 189/3/3
f 202/3/3 190/3/3 201/3/3
f 203/3/3 192/3/3 191/3/3
f 204/3/3 192/3/3 203/3/3
f 205/3/3 194/3/3 193/3/3
f 206/3/3 194/3/3 205/3/3
f 207/3/3 196/3/3 195/3/3
f 208/3/3 196/3/3 207/3/3
f 211/3/3 203/3/3 202/3/3
f 212/3/3 203/3/3 211/3/3
f 213/3/3 207/3/3 206/3/3
f 214/3/3 207/3/3 213/3/3
f 215/1/3 210/1/3 209/1/3
f 216/1/3 210/1/3 215/1/3
f 217/3/4 218/3/4 226/3/4
f 226/3/4 218/3/4 227/3/4
f 219/3/4 220/3/4 230/3/4
f 230/3/4 220/3/4 231/3/4
f 221/1/4 222/1/4 233/1/4
f 233/1/4 222/1/4 234/1/4
f 223/3/4 224/3/4 235/3/4
f 235/3/4 224/3/4 236/3/4
f 225/3/4 226/3/4 237/3/4
f 237/3/4 226/3/4 238/3/4
f 227/3/4 228/3/4 239/3/4
f 239/3/4 228/3/4 240/3/4
f 229/3/4 230/3/4 241/3/4
f 241/3/4 230/3/4 242/3/4
f 231/3/4 232/3/4 243/3/4
f 243/3/4 232/3/4 244/3/4
f 238/3/4 239/3/4 247/3/4
f 247/3/4 239/3/4 248/3/4
f 242/3/4 243/3/4 249/3/4
f 249/3/4 243/3/4 250/3/4
f 245/1/4 246/1/4 251/1/4
f 251/1/4 246/1/4 252/1/4
f 259/3/4 260/3/4 267/3/4
f 261/1/4 262/1/4 268/1/4
f 263/3/4 264/3/4 269/3/4
f 269/3/4 264/3/4 270/3/4
f 265/3/4 266/3/4 271/3/4
f 271/3/4 266/3/4 272/3/4
f 259/3/4 267/3/4 273/3/4
f 267/1/4 268/1/4 273/1/4
f 268/1/4 262/1/4 274/1/4
f 273/1/4 268/1/4 274/1/4
f 253/2/4 254/2/4 275/2/4
f 275/2/4 254/2/4 276/2/4
f 255/3/4 256/3/4 277/3/4
f 277/3/4 256/3/4 278/3/4
f 257/3/4 258/3/4 279/3/4
f 279/3/4 258/3/4 280/3/4
f 259/3/4 273/3/4 281/3/4
f 281/3/4 273/3/4 282/3/4
f 274/1/4 262/1/4 283/1/4
f 283/1/4 262/1/4 284/1/4
f 285/1/4 286/1/4 287/1/4
f 287/1/4 286/1/4 288/1/4
f 291/2/5 290/2/5 289/2/5
f 292/2/5 290/2/5 291/2/5
f 295/3/5 294/3/5 293/3/5
f 296/3/5 294/3/5 295/3/5
f 297/3/5 295/3/5 293/3/5
f 298/3/5 294/3/5 296/3/5
f 299/3/5 297/3/5 293/3/5
f 299/3/5 298/3/5 297/3/5
f 300/3/5 294/3/5 298/3/5
f 300/3/5 298/3/5 299/3/5
f 304/3/5 302/3/5 301/3/5
f 305/3/5 302/3/5 304/3/5
f 307/3/5 304/3/5 303/3/5
f 308/3/5 304/3/5 307/3/5
f 309/3/5 306/3/5 305/3/5
f 310/3/5 306/3/5 309/3/5
f 311/3/5 309/3/5 308/3/5
f 312/3/5 309/3/5 311/3/5
f 315/3/5 314/3/5 313/3/5
f 316/3/5 314/3/5 315/3/5
f 317/3/5 315/3/5 313/3/5
f 318/3/5 314/3/5 316/3/5
f 319/3/5 317/3/5 313/3/5
f 319/3/5 318/3/5 317/3/5
f 320/3/5 314/3/5 318/3/5
f 320/3/5 318/3/5 319/3/5
f 324/3/5 322/3/5 321/3/5
f 325/3/5 322/3/5 324/3/5
f 327/3/5 324/3/5 323/3/5
f 328/3/5 324/3/5 327/3/5
f 329/3/5 326/3/5 325/3/5
f 330/3/5 326/3/5 329/3/5
f 331/3/5 329/3/5 328/3/5
f 332/3/5 329/3/5 331/3/5
f 335/3/5 334/3/5 333/3/5
f 336/3/5 334/3/5 335/3/5
f 337/3/5 335/3/5 333/3/5
f 338/3/5 334/3/5 336/3/5
f 339/3/5 337/3/5 333/3/5
f 339/3/5 338/3/5 337/3/5
f 340/3/5 334/3/5 338/3/5
f 340/3/5 338/3/5 339/3/5
f 345/1/5 342/1/5 341/1/5
f 346/1/5 342/1/5 345/1/5
f 347/1/5 344/1/5 343/1/5
f 348/1/5 344/1/5 347/1/5
f 353/1/5 350/1/5 349/1/5
f 354/1/5 350/1/5 353/1/5
f 355/1/5 352/1/5 351/1/5
f 356/1/5 352/1/5 355/1/5
f 359/1/5 358/1/5 357/1/5
f 360/1/5 358/1/5 359/1/5
f 363/1/5 362/1/5 361/1/5
f 364/1/5 362/1/5 363/1/5
f 365/2/6 366/2/6 367/2/6
f 367/2/6 366/2/6 368/2/6
f 365/2/6 367/2/6 369/2/6
f 368/2/6 366/2/6 370/2/6
f 365/2/6 369/2/6 371/2/6
f 369/2/6 370/2/6 371/2/6
f 370/2/6 366/2/6 372/2/6
f 371/2/6 370/2/6 372/2/6
f 373/3/6 374/3/6 375/3/6
f 375/3/6 374/3/6 376/3/6
f 373/3/6 375/3/6 377/3/6
f 376/3/6 374/3/6 378/3/6
f 373/3/6 377/3/6 379/3/6
f 377/3/6 378/3/6 379/3/6
f 378/3/6 374/3/6 380/3/6
f 379/3/6 378/3/6 380/3/6
f 381/3/6 382/3/6 384/3/6
f 384/3/6 382/3/6 385/3/6
f 383/3/6 384/3/6 387/3/6
f 387/3/6 384/3/6 388/3/6
f 385/3/6 386/3/6 389/3/6
f 389/3/6 386/3/6 390/3/6
f 388/3/6 389/3/6 391/3/6
f 391/3/6 389/3/6 392/3/6
f 393/3/6 394/3/6 395/3/6
f 395/3/6 394/3/6 396/3/6
f 393/3/6 395/3/6 397/3/6
f 396/3/6 394/3/6 398/3/6
f 393/3/6 397/3/6 399/3/6
f 397/3/6 398/3/6 399/3/6
f 398/3/6 394/3/6 400/3/6
f 399/3/6 398/3/6 400/3/6
f 401/3/6 402/3/6 404/3/6
f 404/3/6 402/3/6 405/3/6
f 403/3/6 404/3/6 407/3/6
f 407/3/6 404/3/6 408/3/6
f 405/3/6 406/3/6 409/3/6
f 409/3/6 406/3/6 410/3/6
f 408/3/6 409/3/6 411/3/6
f 411/3/6 409/3/6 412/3/6
f 413/3/6 414/3/6 417/3/6
f 417/3/6 414/3/6 418/3/6
f 415/3/6 416/3/6 419/3/6
f 419/3/6 416/3/6 420/3/6
f 421/3/6 422/3/6 425/3/6
f 425/3/6 422/3/6 426/3/6
f 423/3/6 424/3/6 427/3/6
f 427/3/6 424/3/6 428/3/6
f 429/1/6 430/1/6 431/1/6
f 431/1/6 430/1/6 432/1/6
