# MagicaVoxel @ Ephtracy

# group
o 

# material
mtllib stairs_2.mtl
usemtl palette

# normals
vn -1 0 0
vn 1 0 0
vn 0 0 1
vn 0 0 -1
vn 0 -1 0
vn 0 1 0

# texcoords
vt 0.873047 0.5
vt 0.876953 0.5

# verts
v -2.5 0 1.5
v -2.5 0 -2.1
v -2.5 0.2 1.5
v -2.5 0.2 -2.1
v -2.5 0.3 1.5
v -2.5 0.3 1.3
v -2.5 0.4 1.3
v -2.5 0.4 1.1
v -2.5 0.6 1.1
v -2.5 0.6 0.8
v -2.5 0.8 0.8
v -2.5 0.8 0.5
v -2.5 1 0.5
v -2.5 1 0.0999999
v -2.5 1.2 0.0999999
v -2.5 1.2 -0.3
v -2.5 1.4 -0.3
v -2.5 1.4 -0.7
v -2.5 1.6 -0.7
v -2.5 1.6 -1.2
v -2.5 1.8 -1.2
v -2.5 1.8 -2.1
v 2.5 0 1.5
v 2.5 0 -2.1
v 2.5 0.2 1.5
v 2.5 0.2 -2.1
v 2.5 0.3 1.5
v 2.5 0.3 1.3
v 2.5 0.4 1.3
v 2.5 0.4 1.1
v 2.5 0.6 1.1
v 2.5 0.6 0.8
v 2.5 0.8 0.8
v 2.5 0.8 0.5
v 2.5 1 0.5
v 2.5 1 0.0999999
v 2.5 1.2 0.0999999
v 2.5 1.2 -0.3
v 2.5 1.4 -0.3
v 2.5 1.4 -0.7
v 2.5 1.6 -0.7
v 2.5 1.6 -1.2
v 2.5 1.8 -1.2
v 2.5 1.8 -2.1
v -2.5 0 1.5
v -2.5 0.2 1.5
v -2.5 0.3 1.5
v 2.5 0 1.5
v 2.5 0.2 1.5
v 2.5 0.3 1.5
v -2.5 0.3 1.3
v -2.5 0.4 1.3
v 2.5 0.3 1.3
v 2.5 0.4 1.3
v -2.5 0.4 1.1
v -2.5 0.6 1.1
v 2.5 0.4 1.1
v 2.5 0.6 1.1
v -2.5 0.6 0.8
v -2.5 0.8 0.8
v 2.5 0.6 0.8
v 2.5 0.8 0.8
v -2.5 0.8 0.5
v -2.5 1 0.5
v 2.5 0.8 0.5
v 2.5 1 0.5
v -2.5 1 0.0999999
v -2.5 1.2 0.0999999
v 2.5 1 0.0999999
v 2.5 1.2 0.0999999
v -2.5 1.2 -0.3
v -2.5 1.4 -0.3
v 2.5 1.2 -0.3
v 2.5 1.4 -0.3
v -2.5 1.4 -0.7
v -2.5 1.6 -0.7
v 2.5 1.4 -0.7
v 2.5 1.6 -0.7
v -2.5 1.6 -1.2
v -2.5 1.8 -1.2
v 2.5 1.6 -1.2
v 2.5 1.8 -1.2
v -2.5 0 -2.1
v -2.5 0.2 -2.1
v -2.5 1.8 -2.1
v 2.5 0 -2.1
v 2.5 0.2 -2.1
v 2.5 1.8 -2.1
v -2.5 0 1.5
v 2.5 0 1.5
v -2.4 0 1.3
v 2.4 0 1.3
v -2.4 0 -1.3
v 2.4 0 -1.3
v -2.4 0 -1.4
v 2.4 0 -1.4
v -2.4 0 -2
v 2.4 0 -2
v -2.5 0 -2.1
v 2.5 0 -2.1
v -2.5 0.3 1.5
v 2.5 0.3 1.5
v -2.5 0.3 1.3
v 2.5 0.3 1.3
v -2.5 0.4 1.3
v 2.5 0.4 1.3
v -2.5 0.4 1.1
v 2.5 0.4 1.1
v -2.5 0.6 1.1
v 2.5 0.6 1.1
v -2.5 0.6 0.8
v 2.5 0.6 0.8
v -2.5 0.8 0.8
v 2.5 0.8 0.8
v -2.5 0.8 0.5
v 2.5 0.8 0.5
v -2.5 1 0.5
v 2.5 1 0.5
v -2.5 1 0.0999999
v 2.5 1 0.0999999
v -2.5 1.2 0.0999999
v 2.5 1.2 0.0999999
v -2.5 1.2 -0.3
v 2.5 1.2 -0.3
v -2.5 1.4 -0.3
v 2.5 1.4 -0.3
v -2.5 1.4 -0.7
v 2.5 1.4 -0.7
v -2.5 1.6 -0.7
v 2.5 1.6 -0.7
v -2.5 1.6 -1.2
v 2.5 1.6 -1.2
v -2.5 1.8 -1.2
v 2.5 1.8 -1.2
v -2.5 1.8 -2.1
v 2.5 1.8 -2.1

# faces
f 3/2/1 2/2/1 1/2/1
f 4/2/1 2/2/1 3/2/1
f 5/1/1 4/1/1 3/1/1
f 6/1/1 4/1/1 5/1/1
f 7/1/1 4/1/1 6/1/1
f 8/1/1 4/1/1 7/1/1
f 9/1/1 4/1/1 8/1/1
f 10/1/1 4/1/1 9/1/1
f 11/1/1 4/1/1 10/1/1
f 12/1/1 4/1/1 11/1/1
f 13/1/1 4/1/1 12/1/1
f 14/1/1 4/1/1 13/1/1
f 15/1/1 4/1/1 14/1/1
f 16/1/1 4/1/1 15/1/1
f 17/1/1 4/1/1 16/1/1
f 18/1/1 4/1/1 17/1/1
f 19/1/1 4/1/1 18/1/1
f 20/1/1 4/1/1 19/1/1
f 21/1/1 4/1/1 20/1/1
f 22/1/1 4/1/1 21/1/1
f 23/2/2 24/2/2 25/2/2
f 25/2/2 24/2/2 26/2/2
f 25/1/2 26/1/2 27/1/2
f 27/1/2 26/1/2 28/1/2
f 28/1/2 26/1/2 29/1/2
f 29/1/2 26/1/2 30/1/2
f 30/1/2 26/1/2 31/1/2
f 31/1/2 26/1/2 32/1/2
f 32/1/2 26/1/2 33/1/2
f 33/1/2 26/1/2 34/1/2
f 34/1/2 26/1/2 35/1/2
f 35/1/2 26/1/2 36/1/2
f 36/1/2 26/1/2 37/1/2
f 37/1/2 26/1/2 38/1/2
f 38/1/2 26/1/2 39/1/2
f 39/1/2 26/1/2 40/1/2
f 40/1/2 26/1/2 41/1/2
f 41/1/2 26/1/2 42/1/2
f 42/1/2 26/1/2 43/1/2
f 43/1/2 26/1/2 44/1/2
f 48/2/3 46/2/3 45/2/3
f 49/1/3 47/1/3 46/1/3
f 49/2/3 46/2/3 48/2/3
f 50/1/3 47/1/3 49/1/3
f 53/1/3 52/1/3 51/1/3
f 54/1/3 52/1/3 53/1/3
f 57/1/3 56/1/3 55/1/3
f 58/1/3 56/1/3 57/1/3
f 61/1/3 60/1/3 59/1/3
f 62/1/3 60/1/3 61/1/3
f 65/1/3 64/1/3 63/1/3
f 66/1/3 64/1/3 65/1/3
f 69/1/3 68/1/3 67/1/3
f 70/1/3 68/1/3 69/1/3
f 73/1/3 72/1/3 71/1/3
f 74/1/3 72/1/3 73/1/3
f 77/1/3 76/1/3 75/1/3
f 78/1/3 76/1/3 77/1/3
f 81/1/3 80/1/3 79/1/3
f 82/1/3 80/1/3 81/1/3
f 83/2/4 84/2/4 86/2/4
f 84/1/4 85/1/4 87/1/4
f 86/2/4 84/2/4 87/2/4
f 87/1/4 85/1/4 88/1/4
f 91/2/5 90/2/5 89/2/5
f 92/2/5 90/2/5 91/2/5
f 93/2/5 91/2/5 89/2/5
f 93/1/5 92/1/5 91/1/5
f 94/2/5 90/2/5 92/2/5
f 94/1/5 92/1/5 93/1/5
f 95/2/5 93/2/5 89/2/5
f 95/2/5 94/2/5 93/2/5
f 96/2/5 90/2/5 94/2/5
f 96/2/5 94/2/5 95/2/5
f 97/2/5 95/2/5 89/2/5
f 97/1/5 96/1/5 95/1/5
f 98/2/5 90/2/5 96/2/5
f 98/1/5 96/1/5 97/1/5
f 99/2/5 97/2/5 89/2/5
f 99/2/5 98/2/5 97/2/5
f 100/2/5 90/2/5 98/2/5
f 100/2/5 98/2/5 99/2/5
f 101/1/6 102/1/6 103/1/6
f 103/1/6 102/1/6 104/1/6
f 105/1/6 106/1/6 107/1/6
f 107/1/6 106/1/6 108/1/6
f 109/1/6 110/1/6 111/1/6
f 111/1/6 110/1/6 112/1/6
f 113/1/6 114/1/6 115/1/6
f 115/1/6 114/1/6 116/1/6
f 117/1/6 118/1/6 119/1/6
f 119/1/6 118/1/6 120/1/6
f 121/1/6 122/1/6 123/1/6
f 123/1/6 122/1/6 124/1/6
f 125/1/6 126/1/6 127/1/6
f 127/1/6 126/1/6 128/1/6
f 129/1/6 130/1/6 131/1/6
f 131/1/6 130/1/6 132/1/6
f 133/1/6 134/1/6 135/1/6
f 135/1/6 134/1/6 136/1/6
